<svg width="36" height="36" viewBox="0 0 36 36" fill="none" xmlns="http://www.w3.org/2000/svg">
<path d="M29.5318 17.5803C29.5318 23.9247 24.3235 29.0783 17.8857 29.0783C11.448 29.0783 6.23969 23.9247 6.23969 17.5803C6.23969 11.236 11.448 6.0824 17.8857 6.0824C24.3235 6.0824 29.5318 11.236 29.5318 17.5803Z" stroke="#94A3B8"/>
<path d="M7.78324 10.6257L6.2596 5.95061L10.9615 7.54746L7.78324 10.6257Z" stroke="#94A3B8"/>
<path d="M10.8097 7.68802L11.7104 2.55906L15.7567 5.89403L10.8097 7.68802Z" stroke="#94A3B8"/>
<path d="M15.2508 5.74896L17.8857 1.24087L20.5206 5.74896H15.2508Z" stroke="#94A3B8"/>
<path d="M20.2595 5.80963L24.6183 2.88389L25.0039 8.07551L20.2595 5.80963Z" stroke="#94A3B8"/>
<path d="M24.7361 7.73587L29.8524 6.4884L28.3879 11.489L24.7361 7.73587Z" stroke="#94A3B8"/>
<path d="M28.7116 11.8956L33.6574 13.6924L29.6092 17.025L28.7116 11.8956Z" stroke="#94A3B8"/>
<path d="M29.6017 16.7124L33.6541 20.0401L28.7104 21.8429L29.6017 16.7124Z" stroke="#94A3B8"/>
<path d="M29.1214 21.4684L31.4251 26.1503L26.1685 25.7801L29.1214 21.4684Z" stroke="#94A3B8"/>
<path d="M26.0289 25.6929L26.7041 30.8556L21.8403 28.8519L26.0289 25.6929Z" stroke="#94A3B8"/>
<path d="M21.8864 29.4206L19.2809 33.9454L16.6167 29.4541L21.8864 29.4206Z" stroke="#94A3B8"/>
<path d="M16.8306 29.8112L12.7235 33.0728L11.9175 27.9285L16.8306 29.8112Z" stroke="#94A3B8"/>
<path d="M11.7398 27.7704L6.76997 29.5019L7.73679 24.3847L11.7398 27.7704Z" stroke="#94A3B8"/>
<path d="M8.34433 24.5945L3.08138 24.3283L5.94619 19.9592L8.34433 24.5945Z" stroke="#94A3B8"/>
<path d="M5.91607 20.1926L1.35536 17.5821L5.92213 14.9871L5.91607 20.1926Z" stroke="#94A3B8"/>
<mask id="path-16-inside-1_12_1378" fill="white">
<path d="M1.9708 10.7584C1.92309 10.6979 1.95985 10.6084 2.03673 10.5978L8.63706 9.69014C8.71343 9.67964 8.7722 9.75503 8.74303 9.82609L6.23861 15.9263C6.20944 15.9973 6.11411 16.011 6.06672 15.9509L1.9708 10.7584Z"/>
</mask>
<path d="M6.06672 15.9509L6.85742 15.3327L6.06672 15.9509ZM8.63706 9.69014L8.76851 10.6777L8.63706 9.69014ZM2.03673 10.5978L1.90527 9.61019L2.03673 10.5978ZM1.9708 10.7584L1.18009 11.3765L1.9708 10.7584ZM2.16818 11.5854L8.76851 10.6777L8.5056 8.70254L1.90527 9.61019L2.16818 11.5854ZM7.81475 9.45422L5.31033 15.5544L7.1669 16.2981L9.67132 10.198L7.81475 9.45422ZM6.85742 15.3327L2.76151 10.1402L1.18009 11.3765L5.27601 16.5691L6.85742 15.3327ZM5.31033 15.5544C5.57288 14.9149 6.43087 14.7919 6.85742 15.3327L5.27601 16.5691C5.79735 17.23 6.84601 17.0797 7.1669 16.2981L5.31033 15.5544ZM8.76851 10.6777C8.08114 10.7723 7.5522 10.0937 7.81475 9.45422L9.67132 10.198C9.99221 9.41634 9.34572 8.58701 8.5056 8.70254L8.76851 10.6777ZM1.90527 9.61019C1.0596 9.72648 0.655298 10.7112 1.18009 11.3765L2.76151 10.1402C3.19088 10.6845 2.86009 11.4902 2.16818 11.5854L1.90527 9.61019Z" fill="#94A3B8" mask="url(#path-16-inside-1_12_1378)"/>
<path d="M18.1533 22.6548C15.1843 23.4048 12.0562 22.9673 10.8633 22.6548C11.4465 20.1161 11.0621 15.5147 10.5982 13.2067C11.7469 12.774 14.6806 12.1105 17.2255 12.9183H17.9545M18.1533 22.6548V14.6492L17.9545 12.9183M18.1533 22.6548C19.6113 22.9913 23.1105 23.4625 25.4434 22.6548C25.0236 20.5392 24.436 15.6301 25.4434 12.9183C23.4552 12.4134 20.1017 11.9374 18.6172 12.9183H17.9545" stroke="#94A3B8" stroke-width="1.5"/>
<path d="M16.0951 9.65913C16.0951 8.91677 16.6969 8.31497 17.4392 8.31497H18.7996C19.5419 8.31497 20.1437 8.91677 20.1437 9.65913H16.0951Z" fill="#94A3B8"/>
<rect x="17.4447" y="9.65912" width="1.34956" height="1.34416" fill="#94A3B8"/>
<rect x="16.0951" y="11.0033" width="4.04868" height="4.03249" fill="#94A3B8"/>
<path d="M25.0284 24.4449L18.4698 14.0961L18.9553 12.3475L25.0284 24.4449Z" fill="#94A3B8" stroke="#94A3B8" stroke-width="0.2"/>
<path d="M10.8579 24.4449L17.4164 14.0961L16.9309 12.3475L10.8579 24.4449Z" fill="#94A3B8" stroke="#94A3B8" stroke-width="0.2"/>
</svg>
