<svg width="97" height="30" viewBox="0 0 97 30" fill="none" xmlns="http://www.w3.org/2000/svg">
<path d="M4.61649 22H2.72449V7.348H11.4365V9.042H4.61649V13.926H10.9745V15.62H4.61649V22ZM15.9351 22H14.0871V6.908L15.9351 6.644V22ZM27.6202 18.194C27.6202 20.438 26.3882 22.22 23.2642 22.22C20.1402 22.22 18.9082 20.438 18.9082 18.194V15.092C18.9082 12.848 20.1402 11.066 23.2642 11.066C26.3882 11.066 27.6202 12.848 27.6202 15.092V18.194ZM25.7722 15.026C25.7722 13.464 24.9362 12.672 23.2642 12.672C21.5922 12.672 20.7562 13.464 20.7562 15.026V18.26C20.7562 19.822 21.5922 20.614 23.2642 20.614C24.9362 20.614 25.7722 19.822 25.7722 18.26V15.026ZM41.4551 22H39.0791L36.4831 12.914L33.8871 22H31.5111L29.2231 11.286H30.9831L32.7651 20.174L35.3611 11.286H37.6051L40.2011 20.174L41.9831 11.286H43.7431L41.4551 22Z" fill="#2563EB"/>
<path d="M45 0H89C91.8003 0 93.2004 0 94.27 0.544967C95.2108 1.02433 95.9757 1.78924 96.455 2.73005C97 3.79961 97 5.19974 97 8V22C97 24.8003 97 26.2004 96.455 27.27C95.9757 28.2108 95.2108 28.9757 94.27 29.455C93.2004 30 91.8003 30 89 30H45V0Z" fill="#2563EB"/>
<path d="M55.307 14.41V18.216C55.307 20.658 54.427 22.22 50.753 22.22C49.763 22.22 48.157 22.088 46.925 21.802V6.908L48.773 6.644V11.814C49.521 11.418 50.797 11.066 52.161 11.066C54.383 11.066 55.307 12.364 55.307 14.41ZM48.773 13.508V20.438C49.499 20.548 50.225 20.592 50.885 20.592C53.063 20.592 53.459 19.712 53.459 18.282V14.344C53.459 13.244 52.975 12.694 51.721 12.694C50.775 12.694 49.499 13.156 48.773 13.508ZM66.4952 18.194C66.4952 20.438 65.2632 22.22 62.1392 22.22C59.0152 22.22 57.7832 20.438 57.7832 18.194V15.092C57.7832 12.848 59.0152 11.066 62.1392 11.066C65.2632 11.066 66.4952 12.848 66.4952 15.092V18.194ZM64.6472 15.026C64.6472 13.464 63.8112 12.672 62.1392 12.672C60.4672 12.672 59.6312 13.464 59.6312 15.026V18.26C59.6312 19.822 60.4672 20.614 62.1392 20.614C63.8112 20.614 64.6472 19.822 64.6472 18.26V15.026ZM77.0521 14.542V22H75.4901L75.3801 21.208C74.4341 21.868 73.2021 22.22 71.9041 22.22C69.9021 22.22 69.0661 21.032 69.0661 19.14C69.0661 16.918 70.1881 16.126 72.3441 16.126H75.2041V14.454C75.2041 13.112 74.6101 12.65 72.8721 12.65C71.8381 12.65 70.4961 12.826 69.6601 13.002L69.4621 11.528C70.4741 11.264 71.8381 11.066 72.9821 11.066C76.0401 11.066 77.0521 12.254 77.0521 14.542ZM75.2041 19.756V17.666H72.4761C71.3321 17.666 70.9141 18.018 70.9141 19.096C70.9141 20.196 71.1121 20.636 72.4321 20.636C73.3561 20.636 74.3901 20.284 75.2041 19.756ZM84.9758 11.066L85.2178 12.76C84.2058 13.244 83.0398 13.992 82.1598 14.608V22H80.3118V11.286H81.9178L82.0278 12.782C82.8198 12.166 83.9198 11.506 84.9758 11.066ZM86.6833 18.942V14.564C86.6833 12.43 87.6513 11.066 90.1593 11.066C91.1053 11.066 92.3593 11.22 93.2173 11.396V6.908L95.0653 6.644V22H93.5033L93.3493 21.032C92.4693 21.736 91.2153 22.22 89.8073 22.22C87.6953 22.22 86.6833 21.098 86.6833 18.942ZM93.2173 19.316V13.024C92.2273 12.826 91.0173 12.694 90.2693 12.694C89.0373 12.694 88.5313 13.266 88.5313 14.564V18.942C88.5313 20.042 88.8833 20.592 90.1813 20.592C91.2373 20.592 92.4253 20.02 93.2173 19.316Z" fill="white"/>
</svg>
