<svg width="82" height="82" viewBox="0 0 82 82" fill="none" xmlns="http://www.w3.org/2000/svg">
<path d="M28 24H54C54.5523 24 55 24.4477 55 25V57C55 57.5523 54.5523 58 54 58H28C27.4477 58 27 57.5523 27 57V25C27 24.4477 27.4477 24 28 24Z" stroke="#F7AEF8" stroke-width="2"/>
<path d="M31 30H46" stroke="#F7AEF8" stroke-width="2" stroke-linecap="round"/>
<path d="M33 26V22" stroke="#F7AEF8" stroke-width="2" stroke-linecap="round"/>
<path d="M37 26V22" stroke="#F7AEF8" stroke-width="2" stroke-linecap="round"/>
<path d="M41 26V22" stroke="#F7AEF8" stroke-width="2" stroke-linecap="round"/>
<path d="M45 26V22" stroke="#F7AEF8" stroke-width="2" stroke-linecap="round"/>
<path d="M49 26V22" stroke="#F7AEF8" stroke-width="2" stroke-linecap="round"/>
<path d="M31 37H51" stroke="#F7AEF8" stroke-width="2" stroke-linecap="round"/>
<path d="M32 41H50" stroke="#F7AEF8" stroke-width="2" stroke-linecap="round"/>
<path d="M31 51H48" stroke="#F7AEF8" stroke-width="2" stroke-linecap="round"/>
<rect width="82" height="82" rx="20" fill="#F7AEF8" fill-opacity="0.2"/>
</svg>
