<svg width="25" height="25" viewBox="0 0 25 25" fill="none" xmlns="http://www.w3.org/2000/svg">
<circle cx="12.5" cy="12.5" r="11.5" stroke="#94A3B8" stroke-width="2"/>
<path d="M1.14453 12.1911C1.32077 11.6927 2.55447 10.8621 3.96441 10.5298C4.37564 10.4191 5.48009 10.264 6.60805 10.5298C7.736 10.7956 9.47221 11.9142 9.88344 12.3572L11.5518 13.519C11.6935 13.6101 11.8063 13.6885 11.8834 13.75L11.5518 13.519C10.2904 12.7082 6.73421 10.8846 5.55059 10.8621C4.14065 10.7292 2.37823 11.8034 1.67326 12.3572C1.55576 12.4126 1.28553 12.4569 1.14453 12.1911Z" fill="#94A3B8"/>
<path d="M1.14453 12.1911C1.32077 11.6927 2.55447 10.8621 3.96441 10.5298C4.37564 10.4191 5.48009 10.264 6.60805 10.5298C7.736 10.7956 9.47221 11.9142 9.88344 12.3572L11.8834 13.75C11.1197 13.1409 6.86723 10.8871 5.55059 10.8621C4.14065 10.7292 2.37823 11.8034 1.67326 12.3572C1.55576 12.4126 1.28553 12.4569 1.14453 12.1911Z" stroke="#94A3B8" stroke-width="0.5"/>
<ellipse cx="7.05254" cy="6.51411" rx="1.66912" ry="1.76411" fill="#94A3B8"/>
<path fill-rule="evenodd" clip-rule="evenodd" d="M12.0321 22.1304C12.0321 22.5027 12.3351 23.2473 13.5472 23.2473C14.7593 23.2473 14.9308 22.5027 14.9308 22.1304V16.082C15.0907 16.177 15.2505 16.3037 15.4282 16.4446C16.0924 16.9711 17.0054 17.6949 19.0975 17.6949C21.4796 17.2917 22.7591 14.9194 22.8854 14.5161C23.2641 13.3065 23.2641 11.2433 23.2641 10.4369V9.63041V8.82396C23.2641 7.74673 22.0403 5.51752 20.6126 5.19494C19.6025 4.92612 17.3551 4.54977 16.446 5.19494C15.8147 5.59816 14.9308 6.4046 14.9308 6.80783H14.552V5.19493C14.552 4.74469 14.1732 4.03226 13.0369 4.03226C12.1278 4.03226 11.9005 4.80738 11.9005 5.19494L12.0321 22.1304ZM17.9611 15.3226C19.6347 15.3226 20.9914 13.3367 20.9914 10.8871C20.9914 8.43743 19.6347 6.4516 17.9611 6.4516C16.2875 6.4516 14.9308 8.43743 14.9308 10.8871C14.9308 13.3367 16.2875 15.3226 17.9611 15.3226Z" fill="#94A3B8"/>
<path d="M12.0321 22.1304H12.2821L12.2821 22.1285L12.0321 22.1304ZM14.9308 16.082L15.0585 15.8671L14.6808 15.6426V16.082H14.9308ZM15.4282 16.4446L15.2729 16.6405L15.2729 16.6405L15.4282 16.4446ZM19.0975 17.6949V17.9449H19.1185L19.1392 17.9414L19.0975 17.6949ZM22.8854 14.5161L23.1239 14.5908L23.1239 14.5908L22.8854 14.5161ZM20.6126 5.19494L20.5483 5.4367L20.5575 5.43879L20.6126 5.19494ZM16.446 5.19494L16.5807 5.40588L16.5907 5.39881L16.446 5.19494ZM14.9308 6.80783V7.05783H15.1808V6.80783H14.9308ZM14.552 6.80783H14.302V7.05783H14.552V6.80783ZM11.9005 5.19494H11.6505L11.6505 5.19688L11.9005 5.19494ZM13.5472 22.9973C12.9952 22.9973 12.6857 22.8296 12.514 22.6538C12.3365 22.4721 12.2821 22.2575 12.2821 22.1304H11.7821C11.7821 22.3756 11.8792 22.7195 12.1563 23.0032C12.4391 23.2927 12.8871 23.4973 13.5472 23.4973V22.9973ZM14.6808 22.1304C14.6808 22.2847 14.6444 22.4974 14.5017 22.6682C14.3665 22.8301 14.0995 22.9973 13.5472 22.9973V23.4973C14.2071 23.4973 14.6319 23.2922 14.8854 22.9888C15.1315 22.6942 15.1808 22.3485 15.1808 22.1304H14.6808ZM14.6808 16.082V22.1304H15.1808V16.082H14.6808ZM15.5835 16.2487C15.4093 16.1106 15.2357 15.9724 15.0585 15.8671L14.8031 16.2969C14.9457 16.3817 15.0917 16.4969 15.2729 16.6405L15.5835 16.2487ZM19.0975 17.4449C18.0817 17.4449 17.3646 17.2695 16.8263 17.0376C16.2866 16.8051 15.9147 16.5113 15.5835 16.2487L15.2729 16.6405C15.6058 16.9044 16.0226 17.2358 16.6285 17.4968C17.2358 17.7585 18.0212 17.9449 19.0975 17.9449V17.4449ZM22.6468 14.4414C22.5973 14.5996 22.2684 15.2625 21.6527 15.937C21.0417 16.6064 20.1731 17.2593 19.0558 17.4484L19.1392 17.9414C20.404 17.7273 21.3662 16.9925 22.022 16.2741C22.6731 15.5608 23.0472 14.8359 23.1239 14.5908L22.6468 14.4414ZM23.0141 10.4369C23.0141 10.84 23.0141 11.5506 22.9673 12.3099C22.9202 13.074 22.8267 13.8669 22.6468 14.4414L23.1239 14.5908C23.3228 13.9556 23.4187 13.1122 23.4663 12.3407C23.5142 11.5644 23.5141 10.8402 23.5141 10.4369H23.0141ZM23.0141 9.63041V10.4369H23.5141V9.63041H23.0141ZM23.0141 8.82396V9.63041H23.5141V8.82396H23.0141ZM20.5575 5.43879C21.1764 5.57862 21.7927 6.1501 22.2652 6.86439C22.7368 7.57718 23.0141 8.35497 23.0141 8.82396H23.5141C23.5141 8.21572 23.1796 7.34029 22.6823 6.58853C22.1859 5.83826 21.4765 5.13384 20.6677 4.95108L20.5575 5.43879ZM16.5907 5.39881C16.7722 5.26998 17.0388 5.18089 17.3743 5.13238C17.7064 5.08434 18.0861 5.07884 18.4768 5.10176C19.2584 5.14762 20.0559 5.30547 20.5483 5.43653L20.6769 4.95334C20.1593 4.81558 19.328 4.65085 18.5061 4.60262C18.095 4.5785 17.6792 4.58308 17.3027 4.63753C16.9295 4.6915 16.5743 4.79731 16.3013 4.99106L16.5907 5.39881ZM15.1808 6.80783C15.1808 6.78493 15.1995 6.71152 15.2866 6.58141C15.3673 6.4608 15.4856 6.32218 15.6292 6.17741C15.9161 5.88802 16.2805 5.59725 16.5805 5.40563L16.3114 4.98424C15.9801 5.19585 15.5869 5.50991 15.2741 5.82535C15.1178 5.983 14.9758 6.1468 14.871 6.3034C14.7726 6.45051 14.6808 6.62912 14.6808 6.80783H15.1808ZM14.552 7.05783H14.9308V6.55783H14.552V7.05783ZM14.302 5.19493V6.80783H14.802V5.19493H14.302ZM13.0369 4.28226C13.5499 4.28226 13.8619 4.44142 14.0447 4.62241C14.2323 4.80818 14.302 5.03415 14.302 5.19493H14.802C14.802 4.90548 14.6823 4.5501 14.3965 4.2671C14.1058 3.97931 13.6602 3.78226 13.0369 3.78226V4.28226ZM12.1505 5.19494C12.1505 5.04002 12.1979 4.80297 12.3322 4.61213C12.4574 4.43433 12.6662 4.28226 13.0369 4.28226V3.78226C12.4984 3.78226 12.1391 4.01775 11.9233 4.32439C11.7167 4.61801 11.6505 4.96229 11.6505 5.19494H12.1505ZM12.2821 22.1285L12.1505 5.19299L11.6505 5.19688L11.7821 22.1324L12.2821 22.1285ZM20.7414 10.8871C20.7414 12.0682 20.4139 13.1264 19.8974 13.8824C19.3801 14.6396 18.6912 15.0726 17.9611 15.0726V15.5726C18.9047 15.5726 19.7309 15.0126 20.3103 14.1645C20.8906 13.3151 21.2414 12.1556 21.2414 10.8871H20.7414ZM17.9611 6.7016C18.6912 6.7016 19.3801 7.13455 19.8974 7.89175C20.4139 8.64773 20.7414 9.70598 20.7414 10.8871H21.2414C21.2414 9.61853 20.8906 8.45905 20.3103 7.60969C19.7309 6.76157 18.9047 6.2016 17.9611 6.2016V6.7016ZM15.1808 10.8871C15.1808 9.70598 15.5083 8.64773 16.0248 7.89175C16.5421 7.13455 17.2311 6.7016 17.9611 6.7016V6.2016C17.0176 6.2016 16.1914 6.76157 15.6119 7.60969C15.0317 8.45905 14.6808 9.61853 14.6808 10.8871H15.1808ZM17.9611 15.0726C17.2311 15.0726 16.5421 14.6396 16.0248 13.8824C15.5083 13.1264 15.1808 12.0682 15.1808 10.8871H14.6808C14.6808 12.1556 15.0317 13.3151 15.6119 14.1645C16.1914 15.0126 17.0176 15.5726 17.9611 15.5726V15.0726ZM14.552 4.94493L11.9005 4.94494L11.9005 5.44494L14.552 5.44493L14.552 4.94493Z" fill="#94A3B8"/>
</svg>
